<?xml version="1.0" encoding="UTF-8" standalone="no"?>
<svg
   xmlns:dc="http://purl.org/dc/elements/1.1/"
   xmlns:cc="http://creativecommons.org/ns#"
   xmlns:rdf="http://www.w3.org/1999/02/22-rdf-syntax-ns#"
   xmlns:svg="http://www.w3.org/2000/svg"
   xmlns="http://www.w3.org/2000/svg"
   xmlns:sodipodi="http://sodipodi.sourceforge.net/DTD/sodipodi-0.dtd"
   xmlns:inkscape="http://www.inkscape.org/namespaces/inkscape"
   viewBox="0 0 132.5 130.43675"
   height="130.43675"
   width="132.5"
   xml:space="preserve"
   version="1.1"
   id="svg3586"
   inkscape:version="0.91 r13725"
   sodipodi:docname="my_site.svg"><sodipodi:namedview
     pagecolor="#ffffff"
     bordercolor="#666666"
     borderopacity="1"
     objecttolerance="10"
     gridtolerance="10"
     guidetolerance="10"
     inkscape:pageopacity="0"
     inkscape:pageshadow="2"
     inkscape:window-width="640"
     inkscape:window-height="480"
     id="namedview77"
     showgrid="false"
     fit-margin-top="0"
     fit-margin-left="0"
     fit-margin-right="0"
     fit-margin-bottom="0"
     inkscape:zoom="1.611953"
     inkscape:cx="66.25"
     inkscape:cy="57.234375"
     inkscape:window-x="0"
     inkscape:window-y="0"
     inkscape:window-maximized="0"
     inkscape:current-layer="svg3586" /><metadata
     id="metadata3592"><rdf:RDF><cc:Work
         rdf:about=""><dc:format>image/svg+xml</dc:format><dc:type
           rdf:resource="http://purl.org/dc/dcmitype/StillImage" /><dc:title></dc:title></cc:Work></rdf:RDF></metadata><defs
     id="defs3590"><clipPath
       id="clipPath3600"
       clipPathUnits="userSpaceOnUse"><path
         id="path3602"
         d="m 0,117.125 106,0 L 106,0 0,0 0,117.125 Z"
         inkscape:connector-curvature="0" /></clipPath><clipPath
       id="clipPath3612"
       clipPathUnits="userSpaceOnUse"><path
         id="path3614"
         d="M 53,117.124 C 23.775,117.124 0,93.719 0,64.95 l 0,0 C 0,36.181 23.775,12.775 53,12.775 l 0,0 c 29.225,0 53,23.406 53,52.175 l 0,0 c 0,28.769 -23.775,52.174 -53,52.174 z"
         inkscape:connector-curvature="0" /></clipPath></defs><g
     transform="matrix(1.25,0,0,-1.25,0,146.4055)"
     id="g3594"><g
       id="g3596"><g
         clip-path="url(#clipPath3600)"
         id="g3598"><g
           transform="translate(53,12.7754)"
           id="g3604"><path
             id="path3606"
             style="fill:#619d45;fill-opacity:1;fill-rule:nonzero;stroke:none"
             d="m 0,0 c -29.225,0 -53,23.405 -53,52.175 0,28.769 23.775,52.174 53,52.174 29.225,0 53,-23.405 53,-52.174 C 53,23.405 29.225,0 0,0"
             inkscape:connector-curvature="0" /></g></g></g><g
       id="g3608"><g
         clip-path="url(#clipPath3612)"
         id="g3610"><g
           transform="translate(87.2891,0.5293)"
           id="g3616"><path
             id="path3618"
             style="fill:#e5e8ec;fill-opacity:1;fill-rule:nonzero;stroke:none"
             d="m 0,0 c 0,-0.291 -0.237,-0.529 -0.529,-0.529 l -69.271,0 c -0.294,0 -0.53,0.238 -0.53,0.529 l 0,98.66 c 0,0.295 0.236,0.53 0.53,0.53 l 69.271,0 C -0.237,99.19 0,98.955 0,98.66 L 0,0 Z"
             inkscape:connector-curvature="0" /></g><g
           transform="translate(87.2891,94.0859)"
           id="g3620"><path
             id="path3622"
             style="fill:#b7bec0;fill-opacity:1;fill-rule:nonzero;stroke:none"
             d="m 0,0 0,5.104 c 0,0.294 -0.237,0.529 -0.529,0.529 l -69.271,0 c -0.294,0 -0.53,-0.235 -0.53,-0.529 L -70.33,0 0,0 Z"
             inkscape:connector-curvature="0" /></g><path
           id="path3624"
           style="fill:#ff876c;fill-opacity:1;fill-rule:nonzero;stroke:none"
           d="m 16.959,49.148 70.33,0 0,26.596 -70.33,0 0,-26.596 z"
           inkscape:connector-curvature="0" /><path
           id="path3626"
           style="fill:#ffffff;fill-opacity:1;fill-rule:nonzero;stroke:none"
           d="m 32.947,65.002 38.217,0 0,2.51 -38.217,0 0,-2.51 z"
           inkscape:connector-curvature="0" /><path
           id="path3628"
           style="fill:#ffffff;fill-opacity:1;fill-rule:nonzero;stroke:none"
           d="m 28.87,61.93 46.371,0 0,0.627 -46.371,0 0,-0.627 z"
           inkscape:connector-curvature="0" /><path
           id="path3630"
           style="fill:#ffffff;fill-opacity:1;fill-rule:nonzero;stroke:none"
           d="m 26.99,59.654 50.131,0 0,0.629 -50.131,0 0,-0.629 z"
           inkscape:connector-curvature="0" /><path
           id="path3632"
           style="fill:#ffffff;fill-opacity:1;fill-rule:nonzero;stroke:none"
           d="m 33.135,57.381 37.842,0 0,0.629 -37.842,0 0,-0.629 z"
           inkscape:connector-curvature="0" /><path
           id="path3634"
           style="fill:#484f59;fill-opacity:1;fill-rule:nonzero;stroke:none"
           d="m 61.532,85.376 -13.404,0 0,1.739 13.404,0 0,-1.739 z"
           inkscape:connector-curvature="0" /><path
           id="path3636"
           style="fill:#484f59;fill-opacity:1;fill-rule:nonzero;stroke:none"
           d="m 46.798,84.022 -4.082,0 0,4.447 4.082,0 0,-4.447 z"
           inkscape:connector-curvature="0" /><path
           id="path3638"
           style="fill:#b7bec0;fill-opacity:1;fill-rule:nonzero;stroke:none"
           d="m 25.927,80.915 9.313,0 0,0.627 -9.313,0 0,-0.627 z"
           inkscape:connector-curvature="0" /><path
           id="path3640"
           style="fill:#b7bec0;fill-opacity:1;fill-rule:nonzero;stroke:none"
           d="m 36.699,80.915 9.31,0 0,0.627 -9.31,0 0,-0.627 z"
           inkscape:connector-curvature="0" /><path
           id="path3642"
           style="fill:#b7bec0;fill-opacity:1;fill-rule:nonzero;stroke:none"
           d="m 47.468,80.915 9.313,0 0,0.627 -9.313,0 0,-0.627 z"
           inkscape:connector-curvature="0" /><path
           id="path3644"
           style="fill:#b7bec0;fill-opacity:1;fill-rule:nonzero;stroke:none"
           d="m 58.239,80.915 9.313,0 0,0.627 -9.313,0 0,-0.627 z"
           inkscape:connector-curvature="0" /><path
           id="path3646"
           style="fill:#b7bec0;fill-opacity:1;fill-rule:nonzero;stroke:none"
           d="m 69.007,80.915 9.313,0 0,0.627 -9.313,0 0,-0.627 z"
           inkscape:connector-curvature="0" /><g
           transform="translate(83.6172,61.1416)"
           id="g3648"><path
             id="path3650"
             style="fill:#ffffff;fill-opacity:1;fill-rule:nonzero;stroke:none"
             d="M 0,0 -0.379,0.274 0.367,1.304 -0.379,2.332 0,2.608 0.947,1.304 0,0 Z"
             inkscape:connector-curvature="0" /></g><path
           id="path3652"
           style="fill:#ffffff;fill-opacity:1;fill-rule:nonzero;stroke:none"
           d="m 84.274,62.211 -2.581,0 0,0.47 2.581,0 0,-0.47 z"
           inkscape:connector-curvature="0" /><g
           transform="translate(20.6309,61.1406)"
           id="g3654"><path
             id="path3656"
             style="fill:#ffffff;fill-opacity:1;fill-rule:nonzero;stroke:none"
             d="M 0,0 -0.949,1.305 0,2.609 0.379,2.333 -0.369,1.305 0.379,0.277 0,0 Z"
             inkscape:connector-curvature="0" /></g><path
           id="path3658"
           style="fill:#ffffff;fill-opacity:1;fill-rule:nonzero;stroke:none"
           d="m 22.557,62.211 -2.585,0 0,0.47 2.585,0 0,-0.47 z"
           inkscape:connector-curvature="0" /><path
           id="path3660"
           style="fill:#f4da80;fill-opacity:1;fill-rule:nonzero;stroke:none"
           d="m 22.815,45.555 17.133,0 0,-17.133 -17.133,0 0,17.133 z"
           inkscape:connector-curvature="0" /><path
           id="path3662"
           style="fill:#f3b840;fill-opacity:1;fill-rule:nonzero;stroke:none"
           d="m 40.183,45.79 -17.602,0 0,-17.603 17.602,0 0,17.603 z m -0.47,-17.134 -16.662,0 0,16.664 16.662,0 0,-16.664 z"
           inkscape:connector-curvature="0" /><g
           transform="translate(23.1455,28.5176)"
           id="g3664"><path
             id="path3666"
             style="fill:#f3b840;fill-opacity:1;fill-rule:nonzero;stroke:none"
             d="m 0,0 c -0.061,0 -0.12,0.022 -0.166,0.068 -0.092,0.092 -0.092,0.241 0,0.332 l 16.473,16.471 c 0.092,0.093 0.241,0.091 0.332,0 0.091,-0.092 0.091,-0.24 0,-0.332 L 0.166,0.068 C 0.12,0.022 0.06,0 0,0"
             inkscape:connector-curvature="0" /></g><g
           transform="translate(39.6182,28.5176)"
           id="g3668"><path
             id="path3670"
             style="fill:#f3b840;fill-opacity:1;fill-rule:nonzero;stroke:none"
             d="m 0,0 c -0.061,0 -0.12,0.022 -0.166,0.068 l -16.473,16.471 c -0.091,0.092 -0.091,0.24 0,0.332 0.093,0.093 0.242,0.091 0.332,0 L 0.166,0.4 C 0.258,0.309 0.258,0.16 0.166,0.068 0.12,0.022 0.06,0 0,0"
             inkscape:connector-curvature="0" /></g><path
           id="path3672"
           style="fill:#f4da80;fill-opacity:1;fill-rule:nonzero;stroke:none"
           d="m 43.558,45.555 17.134,0 0,-17.133 -17.134,0 0,17.133 z"
           inkscape:connector-curvature="0" /><path
           id="path3674"
           style="fill:#f3b840;fill-opacity:1;fill-rule:nonzero;stroke:none"
           d="m 60.926,45.79 -17.603,0 0,-17.603 17.603,0 0,17.603 z m -0.47,-17.134 -16.663,0 0,16.664 16.663,0 0,-16.664 z"
           inkscape:connector-curvature="0" /><g
           transform="translate(43.8887,28.5176)"
           id="g3676"><path
             id="path3678"
             style="fill:#f3b840;fill-opacity:1;fill-rule:nonzero;stroke:none"
             d="m 0,0 c -0.06,0 -0.12,0.022 -0.166,0.068 -0.092,0.092 -0.092,0.241 0,0.332 l 16.471,16.471 c 0.091,0.092 0.24,0.092 0.332,0 0.092,-0.092 0.092,-0.24 0,-0.332 L 0.166,0.068 C 0.12,0.022 0.06,0 0,0"
             inkscape:connector-curvature="0" /></g><g
           transform="translate(60.3594,28.5176)"
           id="g3680"><path
             id="path3682"
             style="fill:#f3b840;fill-opacity:1;fill-rule:nonzero;stroke:none"
             d="m 0,0 c -0.06,0 -0.12,0.022 -0.166,0.068 l -16.471,16.471 c -0.092,0.092 -0.092,0.24 0,0.332 0.092,0.092 0.241,0.092 0.332,0 L 0.166,0.4 C 0.258,0.309 0.258,0.16 0.166,0.068 0.12,0.022 0.06,0 0,0"
             inkscape:connector-curvature="0" /></g><path
           id="path3684"
           style="fill:#f4da80;fill-opacity:1;fill-rule:nonzero;stroke:none"
           d="m 64.298,45.555 17.135,0 0,-17.133 -17.135,0 0,17.133 z"
           inkscape:connector-curvature="0" /><path
           id="path3686"
           style="fill:#f3b840;fill-opacity:1;fill-rule:nonzero;stroke:none"
           d="m 81.667,45.79 -17.604,0 0,-17.603 17.604,0 0,17.603 z m -0.47,-17.134 -16.664,0 0,16.664 16.664,0 0,-16.664 z"
           inkscape:connector-curvature="0" /><g
           transform="translate(64.6299,28.5176)"
           id="g3688"><path
             id="path3690"
             style="fill:#f3b840;fill-opacity:1;fill-rule:nonzero;stroke:none"
             d="m 0,0 c -0.06,0 -0.12,0.022 -0.166,0.068 -0.092,0.092 -0.092,0.241 0,0.332 l 16.471,16.471 c 0.091,0.092 0.24,0.092 0.332,0 0.092,-0.092 0.092,-0.24 0,-0.332 L 0.166,0.068 C 0.12,0.022 0.06,0 0,0"
             inkscape:connector-curvature="0" /></g><g
           transform="translate(81.1006,28.5176)"
           id="g3692"><path
             id="path3694"
             style="fill:#f3b840;fill-opacity:1;fill-rule:nonzero;stroke:none"
             d="m 0,0 c -0.06,0 -0.12,0.022 -0.166,0.068 l -16.471,16.471 c -0.092,0.092 -0.092,0.24 0,0.332 0.092,0.092 0.241,0.092 0.332,0 L 0.166,0.4 C 0.258,0.309 0.258,0.16 0.166,0.068 0.12,0.022 0.06,0 0,0"
             inkscape:connector-curvature="0" /></g><path
           id="path3696"
           style="fill:#b7bec0;fill-opacity:1;fill-rule:nonzero;stroke:none"
           d="m 39.821,23.972 -17.24,0 0,0.629 17.24,0 0,-0.629 z"
           inkscape:connector-curvature="0" /><path
           id="path3698"
           style="fill:#b7bec0;fill-opacity:1;fill-rule:nonzero;stroke:none"
           d="m 38.268,22.342 -15.687,0 0,0.627 15.687,0 0,-0.627 z"
           inkscape:connector-curvature="0" /><path
           id="path3700"
           style="fill:#b7bec0;fill-opacity:1;fill-rule:nonzero;stroke:none"
           d="m 39.821,20.711 -17.24,0 0,0.627 17.24,0 0,-0.627 z"
           inkscape:connector-curvature="0" /><path
           id="path3702"
           style="fill:#b7bec0;fill-opacity:1;fill-rule:nonzero;stroke:none"
           d="m 36.341,19.078 -13.76,0 0,0.628 13.76,0 0,-0.628 z"
           inkscape:connector-curvature="0" /><path
           id="path3704"
           style="fill:#b7bec0;fill-opacity:1;fill-rule:nonzero;stroke:none"
           d="m 22.581,25.524 9.312,0 0,0.628 -9.312,0 0,-0.628 z"
           inkscape:connector-curvature="0" /><path
           id="path3706"
           style="fill:#b7bec0;fill-opacity:1;fill-rule:nonzero;stroke:none"
           d="m 60.566,23.972 -17.243,0 0,0.629 17.243,0 0,-0.629 z"
           inkscape:connector-curvature="0" /><path
           id="path3708"
           style="fill:#b7bec0;fill-opacity:1;fill-rule:nonzero;stroke:none"
           d="m 59.014,22.342 -15.69,0 0,0.627 15.69,0 0,-0.627 z"
           inkscape:connector-curvature="0" /><path
           id="path3710"
           style="fill:#b7bec0;fill-opacity:1;fill-rule:nonzero;stroke:none"
           d="m 60.566,20.711 -17.243,0 0,0.627 17.243,0 0,-0.627 z"
           inkscape:connector-curvature="0" /><path
           id="path3712"
           style="fill:#b7bec0;fill-opacity:1;fill-rule:nonzero;stroke:none"
           d="m 57.083,19.078 -13.76,0 0,0.628 13.76,0 0,-0.628 z"
           inkscape:connector-curvature="0" /><path
           id="path3714"
           style="fill:#b7bec0;fill-opacity:1;fill-rule:nonzero;stroke:none"
           d="m 43.323,25.524 9.313,0 0,0.628 -9.313,0 0,-0.628 z"
           inkscape:connector-curvature="0" /><path
           id="path3716"
           style="fill:#b7bec0;fill-opacity:1;fill-rule:nonzero;stroke:none"
           d="m 81.308,23.972 -17.244,0 0,0.629 17.244,0 0,-0.629 z"
           inkscape:connector-curvature="0" /><path
           id="path3718"
           style="fill:#b7bec0;fill-opacity:1;fill-rule:nonzero;stroke:none"
           d="m 79.757,22.342 -15.693,0 0,0.627 15.693,0 0,-0.627 z"
           inkscape:connector-curvature="0" /><path
           id="path3720"
           style="fill:#b7bec0;fill-opacity:1;fill-rule:nonzero;stroke:none"
           d="m 81.308,20.711 -17.244,0 0,0.627 17.244,0 0,-0.627 z"
           inkscape:connector-curvature="0" /><path
           id="path3722"
           style="fill:#b7bec0;fill-opacity:1;fill-rule:nonzero;stroke:none"
           d="m 77.826,19.078 -13.763,0 0,0.628 13.763,0 0,-0.628 z"
           inkscape:connector-curvature="0" /><path
           id="path3724"
           style="fill:#b7bec0;fill-opacity:1;fill-rule:nonzero;stroke:none"
           d="m 64.063,25.524 9.315,0 0,0.628 -9.315,0 0,-0.628 z"
           inkscape:connector-curvature="0" /><g
           transform="translate(26.0469,96.9526)"
           id="g3726"><path
             id="path3728"
             style="fill:#ffffff;fill-opacity:1;fill-rule:nonzero;stroke:none"
             d="m 0,0 c 0,-0.499 -0.405,-0.901 -0.902,-0.901 -0.497,0 -0.903,0.402 -0.903,0.901 0,0.499 0.406,0.902 0.903,0.902 C -0.405,0.902 0,0.499 0,0"
             inkscape:connector-curvature="0" /></g><g
           transform="translate(23.0996,96.9526)"
           id="g3730"><path
             id="path3732"
             style="fill:#ffffff;fill-opacity:1;fill-rule:nonzero;stroke:none"
             d="m 0,0 c 0,-0.499 -0.401,-0.901 -0.899,-0.901 -0.499,0 -0.901,0.402 -0.901,0.901 0,0.499 0.402,0.902 0.901,0.902 C -0.401,0.902 0,0.499 0,0"
             inkscape:connector-curvature="0" /></g><g
           transform="translate(20.1592,96.9526)"
           id="g3734"><path
             id="path3736"
             style="fill:#ffffff;fill-opacity:1;fill-rule:nonzero;stroke:none"
             d="m 0,0 c 0,-0.499 -0.404,-0.901 -0.903,-0.901 -0.497,0 -0.901,0.402 -0.901,0.901 0,0.499 0.404,0.902 0.901,0.902 C -0.404,0.902 0,0.499 0,0"
             inkscape:connector-curvature="0" /></g></g></g></g></svg>