<?xml version="1.0" encoding="UTF-8" standalone="no"?>
<svg
   xmlns:dc="http://purl.org/dc/elements/1.1/"
   xmlns:cc="http://creativecommons.org/ns#"
   xmlns:rdf="http://www.w3.org/1999/02/22-rdf-syntax-ns#"
   xmlns:svg="http://www.w3.org/2000/svg"
   xmlns="http://www.w3.org/2000/svg"
   xmlns:sodipodi="http://sodipodi.sourceforge.net/DTD/sodipodi-0.dtd"
   xmlns:inkscape="http://www.inkscape.org/namespaces/inkscape"
   viewBox="0 0 132.5 143.92438"
   height="143.92438"
   width="132.5"
   xml:space="preserve"
   version="1.1"
   id="svg3738"
   inkscape:version="0.91 r13725"
   sodipodi:docname="shuttle.svg"><sodipodi:namedview
     pagecolor="#ffffff"
     bordercolor="#666666"
     borderopacity="1"
     objecttolerance="10"
     gridtolerance="10"
     guidetolerance="10"
     inkscape:pageopacity="0"
     inkscape:pageshadow="2"
     inkscape:window-width="640"
     inkscape:window-height="480"
     id="namedview74"
     showgrid="false"
     fit-margin-top="0"
     fit-margin-left="0"
     fit-margin-right="0"
     fit-margin-bottom="0"
     inkscape:zoom="1.4505002"
     inkscape:cx="60.016874"
     inkscape:cy="62.573125"
     inkscape:window-x="0"
     inkscape:window-y="0"
     inkscape:window-maximized="0"
     inkscape:current-layer="svg3738" /><metadata
     id="metadata3744"><rdf:RDF><cc:Work
         rdf:about=""><dc:format>image/svg+xml</dc:format><dc:type
           rdf:resource="http://purl.org/dc/dcmitype/StillImage" /><dc:title></dc:title></cc:Work></rdf:RDF></metadata><defs
     id="defs3742"><clipPath
       id="clipPath3752"
       clipPathUnits="userSpaceOnUse"><path
         id="path3754"
         d="m 0,130.162 115.973,0 L 115.973,0 0,0 0,130.162 Z"
         inkscape:connector-curvature="0" /></clipPath><clipPath
       id="clipPath3764"
       clipPathUnits="userSpaceOnUse"><path
         id="path3766"
         d="m 9.973,67.198 c 0,-28.771 23.775,-52.175 53,-52.175 l 0,0 c 29.225,0 53,23.404 53,52.175 l 0,0 c 0,28.769 -23.775,52.174 -53,52.174 l 0,0 c -29.225,0 -53,-23.405 -53,-52.174"
         inkscape:connector-curvature="0" /></clipPath><clipPath
       id="clipPath3812"
       clipPathUnits="userSpaceOnUse"><path
         id="path3814"
         d="m 0,130.162 115.973,0 L 115.973,0 0,0 0,130.162 Z"
         inkscape:connector-curvature="0" /></clipPath></defs><g
     transform="matrix(1.25,0,0,-1.25,-12.46625,162.7025)"
     id="g3746"><g
       id="g3748"><g
         clip-path="url(#clipPath3752)"
         id="g3750"><g
           transform="translate(62.9731,15.0225)"
           id="g3756"><path
             id="path3758"
             style="fill:#226ba0;fill-opacity:1;fill-rule:nonzero;stroke:none"
             d="m 0,0 c -29.225,0 -53,23.405 -53,52.175 0,28.769 23.775,52.175 53,52.175 29.225,0 53,-23.406 53,-52.175 C 53,23.405 29.225,0 0,0"
             inkscape:connector-curvature="0" /></g></g></g><g
       id="g3760"><g
         clip-path="url(#clipPath3764)"
         id="g3762"><g
           transform="translate(53.3911,11.5078)"
           id="g3768"><path
             id="path3770"
             style="fill:#cdd5d7;fill-opacity:1;fill-rule:nonzero;stroke:none"
             d="m 0,0 c 0,-5.83 -4.723,-10.556 -10.552,-10.556 -5.831,0 -10.557,4.726 -10.557,10.556 0,5.824 4.726,10.552 10.557,10.552 C -4.723,10.552 0,5.824 0,0"
             inkscape:connector-curvature="0" /></g><g
           transform="translate(93.1499,10.3335)"
           id="g3772"><path
             id="path3774"
             style="fill:#cdd5d7;fill-opacity:1;fill-rule:nonzero;stroke:none"
             d="m 0,0 c 0.774,1.602 1.222,3.394 1.222,5.292 0,6.732 -5.458,12.192 -12.193,12.192 -6.733,0 -12.195,-5.46 -12.195,-12.192 0,-1.898 0.445,-3.69 1.225,-5.292 L 0,0 Z"
             inkscape:connector-curvature="0" /></g><g
           transform="translate(60.8218,80.7563)"
           id="g3776"><path
             id="path3778"
             style="fill:#e5e8ec;fill-opacity:1;fill-rule:nonzero;stroke:none"
             d="m 0,0 5.369,-24.872 5.372,-46.058 -10.741,0 -10.74,0 5.369,46.058 L 0,0 Z"
             inkscape:connector-curvature="0" /></g><g
           transform="translate(60.8218,80.7563)"
           id="g3780"><path
             id="path3782"
             style="fill:#cdd5d7;fill-opacity:1;fill-rule:nonzero;stroke:none"
             d="m 0,0 3.741,-24.872 3.743,-46.058 -7.484,0 -7.486,0 3.743,46.058 L 0,0 Z"
             inkscape:connector-curvature="0" /></g><g
           transform="translate(60.8218,80.7563)"
           id="g3784"><path
             id="path3786"
             style="fill:#e5e8ec;fill-opacity:1;fill-rule:nonzero;stroke:none"
             d="m 0,0 1.108,-24.872 1.106,-46.058 -2.214,0 -2.219,0 1.109,46.058 L 0,0 Z"
             inkscape:connector-curvature="0" /></g><g
           transform="translate(87.1362,9.6479)"
           id="g3788"><path
             id="path3790"
             style="fill:#e5e8ec;fill-opacity:1;fill-rule:nonzero;stroke:none"
             d="m 0,0 c 0.048,0.41 0.079,0.829 0.079,1.254 0,5.826 -4.721,10.552 -10.55,10.552 -1.649,0 -3.203,-0.388 -4.594,-1.063 -1.604,5.498 -6.673,9.518 -12.691,9.518 -6.577,0 -12.014,-4.802 -13.042,-11.083 -3.381,-0.593 -6.354,-2.374 -8.455,-4.913 -0.691,0.225 -1.432,0.351 -2.201,0.351 -3.94,0 -7.134,-3.195 -7.134,-7.133 0,-3.89 3.117,-7.046 6.988,-7.125 0,0 0,-0.004 0.003,-0.006 l 20.579,0 5.938,0 2.574,0 13.432,0 8.512,0 c 0.005,0.011 0.01,0.026 0.015,0.038 0.135,-0.01 0.261,-0.038 0.397,-0.038 2.671,0 4.832,2.162 4.832,4.83 C 4.682,-2.2 2.599,-0.081 0,0"
             inkscape:connector-curvature="0" /></g><g
           transform="translate(47.0718,26.7173)"
           id="g3792"><path
             id="path3794"
             style="fill:#cdd5d7;fill-opacity:1;fill-rule:nonzero;stroke:none"
             d="m 0,0 c -1.688,0 -3.264,-0.489 -4.597,-1.323 -0.068,7.245 -5.957,13.102 -13.221,13.102 -5.701,0 -10.54,-3.609 -12.403,-8.657 -1.408,0.511 -2.923,0.805 -4.508,0.805 -5.636,0 -10.434,-3.527 -12.343,-8.488 1.169,-0.899 2.621,-1.452 4.203,-1.483 0,0 0,-0.005 0.003,-0.006 l 20.579,0 5.937,0 2.575,0 13.432,0 8.512,0 c 0.005,0.012 0.01,0.026 0.015,0.038 C 8.215,-6.014 8.247,-6.017 8.273,-6.02 7.146,-2.529 3.872,0 0,0"
             inkscape:connector-curvature="0" /></g><g
           transform="translate(91.6343,24.6743)"
           id="g3796"><path
             id="path3798"
             style="fill:#e5e8ec;fill-opacity:1;fill-rule:nonzero;stroke:none"
             d="m 0,0 c 0.837,-2.12 -0.202,-4.516 -2.324,-5.354 -2.118,-0.836 -4.516,0.203 -5.353,2.323 -0.836,2.119 0.205,4.516 2.323,5.353 C -3.232,3.16 -0.836,2.119 0,0"
             inkscape:connector-curvature="0" /></g><g
           transform="translate(103.5024,24.9233)"
           id="g3800"><path
             id="path3802"
             style="fill:#e5e8ec;fill-opacity:1;fill-rule:nonzero;stroke:none"
             d="m 0,0 c -0.021,0.943 -0.196,1.9 -0.563,2.83 -1.66,4.204 -6.414,6.267 -10.62,4.607 -4.204,-1.66 -6.267,-6.416 -4.608,-10.619 0.368,-0.93 0.892,-1.749 1.522,-2.451 L 0,0 Z"
             inkscape:connector-curvature="0" /></g><g
           transform="translate(40.1558,24.1411)"
           id="g3804"><path
             id="path3806"
             style="fill:#e5e8ec;fill-opacity:1;fill-rule:nonzero;stroke:none"
             d="m 0,0 c 0,-4.786 -3.881,-8.666 -8.667,-8.666 -4.786,0 -8.665,3.88 -8.665,8.666 0,4.783 3.879,8.663 8.665,8.663 C -3.881,8.663 0,4.783 0,0"
             inkscape:connector-curvature="0" /></g></g></g><g
       id="g3808"><g
         clip-path="url(#clipPath3812)"
         id="g3810"><g
           transform="translate(61.5059,69.2085)"
           id="g3816"><path
             id="path3818"
             style="fill:#30363d;fill-opacity:1;fill-rule:nonzero;stroke:none"
             d="m 0,0 c -4.409,0 -7.984,-5.937 -7.984,-13.258 0,-0.929 0.059,-1.835 0.168,-2.709 l 15.632,0 c 0.109,0.874 0.167,1.78 0.167,2.709 C 7.983,-5.937 4.409,0 0,0"
             inkscape:connector-curvature="0" /></g><g
           transform="translate(59.4272,69.2085)"
           id="g3820"><path
             id="path3822"
             style="fill:#484f59;fill-opacity:1;fill-rule:nonzero;stroke:none"
             d="m 0,0 c -3.261,0 -5.905,-5.937 -5.905,-13.258 0,-0.929 0.044,-1.835 0.124,-2.709 l 11.562,0 c 0.08,0.874 0.123,1.78 0.123,2.709 C 5.904,-5.937 3.261,0 0,0"
             inkscape:connector-curvature="0" /></g><g
           transform="translate(53.9683,100.9751)"
           id="g3824"><path
             id="path3826"
             style="fill:#484f59;fill-opacity:1;fill-rule:nonzero;stroke:none"
             d="m 0,0 c 0,-14.126 -7.237,-26.418 -17.915,-32.787 -0.32,-0.297 -0.636,-0.589 -0.942,-0.87 -1.973,-1.801 -1.33,-10.311 -1.33,-10.311 l 20.291,0 0,49.23 C 0.104,4.5 0.038,3.539 -0.08,2.436 -0.032,1.629 0,0.819 0,0"
             inkscape:connector-curvature="0" /></g><g
           transform="translate(54.0718,84.4907)"
           id="g3828"><path
             id="path3830"
             style="fill:#cdd5d7;fill-opacity:1;fill-rule:nonzero;stroke:none"
             d="m 0,0 c -3.236,-8.241 -9.346,-15.072 -17.121,-19.296 -0.352,-0.298 -0.698,-0.59 -1.034,-0.871 -1.319,-1.098 -1.573,-4.682 -1.57,-7.317 L 0,-27.484 0,0 Z"
             inkscape:connector-curvature="0" /></g><g
           transform="translate(36.1284,58.0044)"
           id="g3832"><path
             id="path3834"
             style="fill:#e5e8ec;fill-opacity:1;fill-rule:nonzero;stroke:none"
             d="m 0,0 c -0.315,-0.232 -0.575,-0.578 -0.792,-0.998 l 18.735,0 0,16.294 C 14.006,9.241 8.19,4.229 1.173,0.87 0.775,0.571 0.382,0.28 0,0"
             inkscape:connector-curvature="0" /></g><g
           transform="translate(69.0439,100.9751)"
           id="g3836"><path
             id="path3838"
             style="fill:#484f59;fill-opacity:1;fill-rule:nonzero;stroke:none"
             d="m 0,0 c 0,-14.126 7.237,-26.418 17.916,-32.787 0.319,-0.297 0.635,-0.589 0.942,-0.87 1.972,-1.801 1.33,-10.311 1.33,-10.311 l -20.291,0 0,49.23 C -0.103,4.5 -0.038,3.539 0.081,2.436 0.033,1.629 0,0.819 0,0"
             inkscape:connector-curvature="0" /></g><g
           transform="translate(68.9409,84.4907)"
           id="g3840"><path
             id="path3842"
             style="fill:#cdd5d7;fill-opacity:1;fill-rule:nonzero;stroke:none"
             d="m 0,0 c 3.236,-8.241 9.346,-15.072 17.121,-19.296 0.352,-0.298 0.698,-0.59 1.034,-0.871 1.319,-1.098 1.572,-4.682 1.57,-7.317 L 0,-27.484 0,0 Z"
             inkscape:connector-curvature="0" /></g><g
           transform="translate(86.8838,58.0044)"
           id="g3844"><path
             id="path3846"
             style="fill:#e5e8ec;fill-opacity:1;fill-rule:nonzero;stroke:none"
             d="m 0,0 c 0.315,-0.232 0.575,-0.578 0.792,-0.998 l -18.735,0 0,16.294 C -14.006,9.241 -8.19,4.229 -1.173,0.87 -0.775,0.571 -0.381,0.28 0,0"
             inkscape:connector-curvature="0" /></g><g
           transform="translate(69.4575,57.0068)"
           id="g3848"><path
             id="path3850"
             style="fill:#e5e8ec;fill-opacity:1;fill-rule:nonzero;stroke:none"
             d="m 0,0 0,50.893 c 0,4.658 -3.461,19.774 -7.952,22.262 -4.489,-2.488 -7.951,-17.604 -7.951,-22.262 L -15.903,0 0,0 Z"
             inkscape:connector-curvature="0" /></g><g
           transform="translate(61.5059,130.1616)"
           id="g3852"><path
             id="path3854"
             style="fill:#cdd5d7;fill-opacity:1;fill-rule:nonzero;stroke:none"
             d="m 0,0 c -0.045,-0.024 -0.089,-0.059 -0.135,-0.087 l 0,-73.068 8.087,0 0,50.893 C 7.952,-17.604 4.49,-2.488 0,0"
             inkscape:connector-curvature="0" /></g><g
           transform="translate(55.8237,119.769)"
           id="g3856"><path
             id="path3858"
             style="fill:#484f59;fill-opacity:1;fill-rule:nonzero;stroke:none"
             d="M 0,0 11.364,0 C 9.936,4.701 7.939,9.142 5.682,10.393 3.425,9.142 1.429,4.701 0,0"
             inkscape:connector-curvature="0" /></g><g
           transform="translate(61.3711,119.769)"
           id="g3860"><path
             id="path3862"
             style="fill:#30363d;fill-opacity:1;fill-rule:nonzero;stroke:none"
             d="M 0,0 5.817,0 C 4.388,4.701 2.392,9.142 0.135,10.393 0.089,10.368 0.045,10.334 0,10.306 L 0,0 Z"
             inkscape:connector-curvature="0" /></g><g
           transform="translate(66.3999,111.3394)"
           id="g3864"><path
             id="path3866"
             style="fill:#484f59;fill-opacity:1;fill-rule:nonzero;stroke:none"
             d="m 0,0 c -0.327,-0.744 -1.409,-0.463 -2.678,0.011 -1.45,0.568 -3.071,0.568 -4.521,0 -1.268,-0.472 -2.35,-0.755 -2.677,-0.011 -0.335,0.725 0.455,2.482 2.106,3.121 1.817,0.711 3.847,0.711 5.664,0 C -0.456,2.486 0.334,0.728 0,0"
             inkscape:connector-curvature="0" /></g><g
           transform="translate(45.29,69.2085)"
           id="g3868"><path
             id="path3870"
             style="fill:#484f59;fill-opacity:1;fill-rule:nonzero;stroke:none"
             d="m 0,0 c -1.929,0 -3.493,-5.937 -3.493,-13.258 0,-0.929 0.026,-1.835 0.074,-2.709 l 6.838,0 c 0.048,0.874 0.074,1.78 0.074,2.709 C 3.493,-5.937 1.928,0 0,0"
             inkscape:connector-curvature="0" /></g><g
           transform="translate(45.29,69.2085)"
           id="g3872"><path
             id="path3874"
             style="fill:#30363d;fill-opacity:1;fill-rule:nonzero;stroke:none"
             d="m 0,0 c -0.503,0 -0.98,-0.412 -1.413,-1.139 1.584,-0.866 2.806,-6.029 2.806,-12.288 0,-0.871 -0.024,-1.719 -0.069,-2.54 l 2.095,0 c 0.048,0.874 0.074,1.78 0.074,2.709 C 3.493,-5.937 1.928,0 0,0"
             inkscape:connector-curvature="0" /></g><g
           transform="translate(77.7217,69.2085)"
           id="g3876"><path
             id="path3878"
             style="fill:#484f59;fill-opacity:1;fill-rule:nonzero;stroke:none"
             d="m 0,0 c -1.928,0 -3.493,-5.937 -3.493,-13.258 0,-0.929 0.026,-1.835 0.074,-2.709 l 6.839,0 c 0.048,0.874 0.073,1.78 0.073,2.709 C 3.493,-5.937 1.93,0 0,0"
             inkscape:connector-curvature="0" /></g><g
           transform="translate(77.7217,69.2085)"
           id="g3880"><path
             id="path3882"
             style="fill:#30363d;fill-opacity:1;fill-rule:nonzero;stroke:none"
             d="m 0,0 c -0.503,0 -0.981,-0.412 -1.413,-1.139 1.586,-0.866 2.806,-6.029 2.806,-12.288 0,-0.871 -0.023,-1.719 -0.068,-2.54 l 2.095,0 c 0.048,0.874 0.073,1.78 0.073,2.709 C 3.493,-5.937 1.93,0 0,0"
             inkscape:connector-curvature="0" /></g></g></g></g></svg>